Mutua-Stencil.ufo
<glyph name="numbersign" format="2">
	<advance width="788"/>
	<unicode hex="0023"/>
	<outline>
		<contour>
			<point x="190" y="391" type="line"/>
			<point x="190" y="0" type="line"/>
			<point x="316" y="0" type="line"/>
			<point x="316" y="391" type="line"/>
		</contour>
		<contour>
			<point x="470" y="391" type="line"/>
			<point x="470" y="0" type="line"/>
			<point x="596" y="0" type="line"/>
			<point x="596" y="391" type="line"/>
		</contour>
		<contour>
			<point x="728" y="567" type="line"/>
			<point x="59" y="566" type="line"/>
			<point x="59" y="440" type="line"/>
			<point x="728" y="441" type="line"/>
		</contour>
		<contour>
			<point x="729" y="286" type="line"/>
			<point x="59" y="285" type="line"/>
			<point x="59" y="159" type="line"/>
			<point x="728" y="160" type="line"/>
		</contour>
		<contour>
			<point x="316" y="457" type="line"/>
			<point x="316" y="719" type="line"/>
			<point x="190" y="719" type="line"/>
			<point x="190" y="457" type="line"/>
		</contour>
		<contour>
			<point x="596" y="457" type="line"/>
			<point x="596" y="719" type="line"/>
			<point x="470" y="719" type="line"/>
			<point x="470" y="457" type="line"/>
		</contour>
	</outline>
</glyph>
<glyph name="ampersand" format="2">
	<advance width="758"/>
	<unicode hex="0026"/>
	<outline>
		<contour>
			<point x="198" y="175" type="line"/>
			<point x="198" y="325" type="line"/>
			<point x="198" y="334"/>
			<point x="199" y="342"/>
			<point x="201" y="348" type="curve" smooth="yes"/>
			<point x="203" y="357"/>
			<point x="207" y="363"/>
			<point x="212" y="368" type="curve"/>
			<point x="510" y="154" type="line"/>
			<point x="499" y="133"/>
			<point x="477" y="128"/>
			<point x="447" y="125" type="curve"/>
			<point x="72" y="125" type="line"/>
			<point x="82" y="41"/>
			<point x="140" y="0"/>
			<point x="247" y="0" type="curve" smooth="yes"/>
			<point x="451" y="0" type="line" smooth="yes"/>
			<point x="537" y="0"/>
			<point x="588" y="30"/>
			<point x="614" y="80" type="curve"/>
			<point x="738" y="-9" type="line"/>
			<point x="738" y="137" type="line"/>
			<point x="636" y="211" type="line"/>
			<point x="636" y="425" type="line"/>
			<point x="520" y="425" type="line"/>
			<point x="520" y="296" type="line"/>
			<point x="270" y="478" type="line" smooth="yes"/>
			<point x="255" y="489"/>
			<point x="255" y="503"/>
			<point x="255" y="522" type="curve" smooth="yes"/>
			<point x="255" y="562" type="line" smooth="yes"/>
			<point x="255" y="616"/>
			<point x="287" y="629"/>
			<point x="318" y="629" type="curve" smooth="yes"/>
			<point x="579" y="629" type="line"/>
			<point x="579" y="757" type="line"/>
			<point x="289" y="757" type="line" smooth="yes"/>
			<point x="192" y="757"/>
			<point x="127" y="701"/>
			<point x="127" y="616" type="curve" smooth="yes"/>
			<point x="127" y="507" type="line" smooth="yes"/>
			<point x="127" y="466"/>
			<point x="140" y="435"/>
			<point x="169" y="418" type="curve"/>
			<point x="117" y="409"/>
			<point x="70" y="376"/>
			<point x="70" y="304" type="curve" smooth="yes"/>
			<point x="70" y="175" type="line"/>
		</contour>
	</outline>
</glyph>
<glyph name="parenleft" format="2">
	<advance width="410"/>
	<unicode hex="0028"/>
	<outline>
		<contour>
			<point x="350" y="-36" type="line"/>
			<point x="307" y="-36" type="line" smooth="yes"/>
			<point x="261" y="-36"/>
			<point x="231" y="-11"/>
			<point x="231" y="48" type="curve" smooth="yes"/>
			<point x="231" y="573" type="line" smooth="yes"/>
			<point x="231" y="638"/>
			<point x="261" y="677"/>
			<point x="307" y="677" type="curve" smooth="yes"/>
			<point x="350" y="677" type="line"/>
			<point x="350" y="788" type="line"/>
			<point x="309" y="788" type="line" smooth="yes"/>
			<point x="172" y="788"/>
			<point x="100" y="705"/>
			<point x="100" y="558" type="curve" smooth="yes"/>
			<point x="100" y="84" type="line"/>
			<point x="100" y="-70"/>
			<point x="151" y="-147"/>
			<point x="309" y="-147" type="curve" smooth="yes"/>
			<point x="350" y="-147" type="line"/>
		</contour>
	</outline>
</glyph>
<glyph name="zero" format="2">
	<advance width="720"/>
	<unicode hex="0030"/>
	<guideline x="330" y="421" angle="233.8068"/>
	<guideline x="463" y="172" angle="0"/>
	<outline>
		<contour>
			<point x="647" y="122" type="curve"/>
			<point x="439" y="122" type="line"/>
			<point x="434" y="122"/>
			<point x="428" y="122"/>
			<point x="423" y="122" type="curve"/>
			<point x="252" y="122" type="line"/>
			<point x="542" y="534" type="line"/>
			<point x="542" y="172" type="line"/>
			<point x="658" y="172" type="line"/>
			<point x="661" y="189"/>
			<point x="662" y="208"/>
			<point x="662" y="228" type="curve" smooth="yes"/>
			<point x="662" y="528" type="line" smooth="yes"/>
			<point x="662" y="632"/>
			<point x="630" y="705"/>
			<point x="562" y="738" type="curve" smooth="yes"/>
			<point x="535" y="751"/>
			<point x="501" y="758"/>
			<point x="462" y="758" type="curve" smooth="yes"/>
			<point x="259" y="758" type="line" smooth="yes"/>
			<point x="160" y="758"/>
			<point x="99" y="714"/>
			<point x="73" y="634" type="curve"/>
			<point x="296" y="634" type="line" smooth="yes"/>
			<point x="299" y="634"/>
			<point x="303" y="634"/>
			<point x="307" y="634" type="curve"/>
			<point x="485" y="634" type="line"/>
			<point x="178" y="199" type="line"/>
			<point x="178" y="583" type="line"/>
			<point x="62" y="583" type="line"/>
			<point x="59" y="566"/>
			<point x="58" y="547"/>
			<point x="58" y="528" type="curve" smooth="yes"/>
			<point x="58" y="228" type="line" smooth="yes"/>
			<point x="58" y="81"/>
			<point x="123" y="-2"/>
			<point x="259" y="-2" type="curve" smooth="yes"/>
			<point x="461" y="-2" type="line" smooth="yes"/>
			<point x="560" y="-2"/>
			<point x="621" y="42"/>
		</contour>
	</outline>
</glyph>
<glyph name="one" format="2">
	<advance width="720"/>
	<unicode hex="0031"/>
	<outline>
		<contour>
			<point x="354" y="582" type="line"/>
			<point x="354" y="-1" type="line"/>
			<point x="484" y="-1" type="line"/>
			<point x="484" y="582" type="line"/>
		</contour>
		<contour>
			<point x="354" y="632" type="line"/>
			<point x="354" y="755" type="line"/>
			<point x="165" y="755" type="line"/>
			<point x="165" y="632" type="line"/>
		</contour>
		<contour>
			<point x="122" y="126" type="line"/>
			<point x="122" y="-2" type="line"/>
			<point x="688" y="-1" type="line"/>
			<point x="688" y="127" type="line"/>
		</contour>
		<contour>
			<point x="484" y="632" type="line"/>
			<point x="484" y="755" type="line"/>
			<point x="354" y="755" type="line"/>
			<point x="354" y="632" type="line"/>
		</contour>
	</outline>
</glyph>
<glyph name="three" format="2">
	<advance width="720"/>
	<unicode hex="0033"/>
	<outline>
		<contour>
			<point x="403" y="578" type="line"/>
			<point x="191" y="413" type="line"/>
			<point x="191" y="329" type="line"/>
			<point x="409" y="329" type="line"/>
			<point x="486" y="329"/>
			<point x="498" y="299"/>
			<point x="498" y="234" type="curve" smooth="yes"/>
			<point x="498" y="156"/>
			<point x="479" y="126"/>
			<point x="379" y="126" type="curve"/>
			<point x="72" y="126" type="line"/>
			<point x="72" y="-1" type="line"/>
			<point x="423" y="0" type="line"/>
			<point x="567" y="0"/>
			<point x="626" y="88"/>
			<point x="626" y="196" type="curve"/>
			<point x="626" y="264" type="line"/>
			<point x="626" y="378"/>
			<point x="570" y="428"/>
			<point x="441" y="428" type="curve" smooth="yes"/>
			<point x="373" y="428" type="line"/>
			<point x="566" y="578" type="line"/>
		</contour>
		<contour>
			<point x="69" y="628" type="line"/>
			<point x="599" y="628" type="line"/>
			<point x="599" y="755" type="line"/>
			<point x="69" y="755" type="line"/>
		</contour>
	</outline>
</glyph>
<glyph name="seven" format="2">
	<advance width="720"/>
	<unicode hex="0037"/>
	<outline>
		<contour>
			<point x="472" y="580" type="line"/>
			<point x="142" y="0" type="line"/>
			<point x="294" y="0" type="line"/>
			<point x="619" y="580" type="line"/>
		</contour>
		<contour>
			<point x="87" y="630" type="line"/>
			<point x="638" y="630" type="line"/>
			<point x="638" y="756" type="line"/>
			<point x="87" y="756" type="line"/>
		</contour>
	</outline>
</glyph>
<glyph name="nine" format="2">
	<advance width="720"/>
	<unicode hex="0039"/>
	<outline>
		<contour>
			<point x="456" y="380" type="curve"/>
			<point x="264" y="380" type="line"/>
			<point x="212" y="380"/>
			<point x="190" y="407"/>
			<point x="190" y="444" type="curve" smooth="yes"/>
			<point x="189" y="557" type="line" smooth="yes"/>
			<point x="189" y="604"/>
			<point x="210" y="631"/>
			<point x="251" y="631" type="curve" smooth="yes"/>
			<point x="437" y="631" type="line" smooth="yes"/>
			<point x="482" y="631"/>
			<point x="505" y="604"/>
			<point x="505" y="557" type="curve"/>
			<point x="505" y="254" type="line"/>
			<point x="505" y="160"/>
			<point x="465" y="125"/>
			<point x="379" y="125" type="curve" smooth="yes"/>
			<point x="114" y="125" type="line"/>
			<point x="114" y="0" type="line"/>
			<point x="423" y="0" type="line" smooth="yes"/>
			<point x="565" y="0"/>
			<point x="633" y="88"/>
			<point x="633" y="230" type="curve" smooth="yes"/>
			<point x="633" y="596" type="line"/>
			<point x="633" y="697"/>
			<point x="560" y="756"/>
			<point x="450" y="756" type="curve" smooth="yes"/>
			<point x="251" y="756" type="line" smooth="yes"/>
			<point x="141" y="756"/>
			<point x="68" y="697"/>
			<point x="68" y="596" type="curve" smooth="yes"/>
			<point x="68" y="416" type="line" smooth="yes"/>
			<point x="68" y="313"/>
			<point x="131" y="255"/>
			<point x="281" y="255" type="curve" smooth="yes"/>
			<point x="337" y="255" type="line"/>
			<point x="423" y="255"/>
			<point x="465" y="301"/>
		</contour>
	</outline>
</glyph>
<glyph name="at" format="2">
	<advance width="977"/>
	<unicode hex="0040"/>
	<outline>
		<contour>
			<point x="75" y="528" type="curve" smooth="yes"/>
			<point x="75" y="122" type="line"/>
			<point x="75" y="-37"/>
			<point x="138" y="-108"/>
			<point x="268" y="-108" type="curve" smooth="yes"/>
			<point x="534" y="-108" type="line"/>
			<point x="534" y="15" type="line"/>
			<point x="313" y="15" type="line" smooth="yes"/>
			<point x="236" y="15"/>
			<point x="199" y="37"/>
			<point x="199" y="141" type="curve" smooth="yes"/>
			<point x="199" y="507" type="line" smooth="yes"/>
			<point x="199" y="612"/>
			<point x="237" y="634"/>
			<point x="314" y="634" type="curve" smooth="yes"/>
			<point x="675" y="634" type="line" smooth="yes"/>
			<point x="752" y="634"/>
			<point x="789" y="612"/>
			<point x="789" y="507" type="curve" smooth="yes"/>
			<point x="789" y="291" type="line" smooth="yes"/>
			<point x="789" y="216"/>
			<point x="767" y="208"/>
			<point x="718" y="208" type="curve" smooth="yes"/>
			<point x="696" y="208" type="line"/>
			<point x="696" y="562" type="line"/>
			<point x="578" y="561" type="line"/>
			<point x="578" y="284" type="line"/>
			<point x="578" y="206" type="line" smooth="yes"/>
			<point x="578" y="116"/>
			<point x="625" y="81"/>
			<point x="689" y="81" type="curve" smooth="yes"/>
			<point x="763" y="81" type="line" smooth="yes"/>
			<point x="859" y="81"/>
			<point x="913" y="174"/>
			<point x="913" y="309" type="curve" smooth="yes"/>
			<point x="913" y="526" type="line" smooth="yes"/>
			<point x="913" y="645"/>
			<point x="850" y="756"/>
			<point x="720" y="756" type="curve" smooth="yes"/>
			<point x="268" y="756" type="line" smooth="yes"/>
			<point x="163" y="756"/>
			<point x="75" y="663"/>
		</contour>
		<contour>
			<point x="527" y="204" type="curve"/>
			<point x="457" y="204" type="line"/>
			<point x="401" y="204"/>
			<point x="382" y="223"/>
			<point x="382" y="284" type="curve" smooth="yes"/>
			<point x="382" y="305"/>
			<point x="382" y="327"/>
			<point x="382" y="359" type="curve" smooth="yes"/>
			<point x="382" y="419"/>
			<point x="401" y="444"/>
			<point x="457" y="444" type="curve"/>
			<point x="585" y="444" type="line"/>
			<point x="614" y="561" type="line"/>
			<point x="614" y="561"/>
			<point x="563" y="561"/>
			<point x="434" y="561" type="curve" smooth="yes"/>
			<point x="304" y="561"/>
			<point x="262" y="486"/>
			<point x="262" y="379" type="curve" smooth="yes"/>
			<point x="262" y="259" type="line" smooth="yes"/>
			<point x="262" y="134"/>
			<point x="320" y="78"/>
			<point x="424" y="80" type="curve"/>
			<point x="454" y="80" type="line"/>
			<point x="525" y="80"/>
			<point x="552" y="141"/>
		</contour>
	</outline>
</glyph>
<glyph name="A" format="2">
	<advance width="749"/>
	<unicode hex="0041"/>
	<anchor x="666" y="10" name="ogonek"/>
	<anchor x="375" y="0" name="bottom"/>
	<anchor x="377" y="756" name="top"/>
	<outline>
		<contour>
			<point x="27" y="0" type="line"/>
			<point x="163" y="0" type="line"/>
			<point x="373" y="673" type="line"/>
			<point x="316" y="630" type="line"/>
			<point x="433" y="630" type="line"/>
			<point x="373" y="673" type="line"/>
			<point x="581" y="0" type="line"/>
			<point x="722" y="0" type="line"/>
			<point x="480" y="756" type="line"/>
			<point x="274" y="756" type="line"/>
		</contour>
		<contour>
			<point x="274" y="188" type="line"/>
			<point x="596" y="188" type="line"/>
			<point x="596" y="313" type="line"/>
			<point x="313" y="313" type="line"/>
		</contour>
	</outline>
</glyph>
<glyph name="E" format="2">
	<advance width="727"/>
	<unicode hex="0045"/>
	<anchor x="654" y="10" name="ogonek"/>
	<anchor x="383" y="756" name="top"/>
	<anchor x="20" y="756" name="topleft"/>
	<anchor x="364" y="0" name="bottom"/>
	<outline>
		<contour>
			<point x="114" y="579" type="line"/>
			<point x="114" y="0" type="line"/>
			<point x="244" y="0" type="line"/>
			<point x="244" y="579" type="line"/>
		</contour>
		<contour>
			<point x="656" y="127" type="line"/>
			<point x="194" y="127" type="line"/>
			<point x="194" y="0" type="line"/>
			<point x="656" y="0" type="line"/>
		</contour>
		<contour>
			<point x="198" y="322" type="line"/>
			<point x="578" y="322" type="line"/>
			<point x="578" y="449" type="line"/>
			<point x="198" y="449" type="line"/>
		</contour>
		<contour>
			<point x="184" y="629" type="line"/>
			<point x="656" y="629" type="line"/>
			<point x="656" y="756" type="line"/>
			<point x="184" y="756" type="line"/>
		</contour>
		<contour>
			<point x="244" y="629" type="line"/>
			<point x="244" y="756" type="line"/>
			<point x="114" y="756" type="line"/>
			<point x="114" y="629" type="line"/>
		</contour>
	</outline>
</glyph>
<glyph name="H" format="2">
	<advance width="839"/>
	<unicode hex="0048"/>
	<outline>
		<contour>
			<point x="241" y="756" type="line"/>
			<point x="114" y="756" type="line"/>
			<point x="114" y="0" type="line"/>
			<point x="241" y="0" type="line"/>
		</contour>
		<contour>
			<point x="725" y="756" type="line"/>
			<point x="598" y="756" type="line"/>
			<point x="598" y="0" type="line"/>
			<point x="725" y="0" type="line"/>
		</contour>
		<contour>
			<point x="291" y="446" type="line"/>
			<point x="291" y="321" type="line"/>
			<point x="636" y="321" type="line"/>
			<point x="636" y="446" type="line"/>
		</contour>
	</outline>
</glyph>
<glyph name="P" format="2">
	<advance width="725"/>
	<unicode hex="0050"/>
	<outline>
		<contour>
			<point x="463" y="257" type="curve" smooth="yes"/>
			<point x="291" y="257" type="line"/>
			<point x="291" y="382" type="line"/>
			<point x="457" y="382" type="line" smooth="yes"/>
			<point x="512" y="382"/>
			<point x="548" y="406"/>
			<point x="548" y="484" type="curve"/>
			<point x="548" y="514" type="line"/>
			<point x="548" y="596"/>
			<point x="522" y="631"/>
			<point x="457" y="631" type="curve" smooth="yes"/>
			<point x="241" y="631" type="line"/>
			<point x="241" y="0" type="line"/>
			<point x="114" y="0" type="line"/>
			<point x="114" y="756" type="line"/>
			<point x="463" y="756" type="line" smooth="yes"/>
			<point x="613" y="756"/>
			<point x="675" y="703"/>
			<point x="675" y="583" type="curve" smooth="yes"/>
			<point x="675" y="457" type="line" smooth="yes"/>
			<point x="675" y="314"/>
			<point x="609" y="257"/>
		</contour>
	</outline>
</glyph>
<glyph name="R" format="2">
	<advance width="795"/>
	<unicode hex="0052"/>
	<outline>
		<contour>
			<point x="114" y="0" type="line"/>
			<point x="244" y="0" type="line"/>
			<point x="244" y="756" type="line"/>
			<point x="114" y="756" type="line"/>
		</contour>
		<contour>
			<point x="613" y="258" type="line"/>
			<point x="581" y="316"/>
			<point x="557" y="342"/>
			<point x="506" y="342" type="curve"/>
			<point x="506" y="365" type="line"/>
			<point x="564" y="365" type="line" smooth="yes"/>
			<point x="677" y="365"/>
			<point x="703" y="467"/>
			<point x="703" y="533" type="curve" smooth="yes"/>
			<point x="703" y="571" type="line" smooth="yes"/>
			<point x="703" y="678"/>
			<point x="648" y="756"/>
			<point x="476" y="756" type="curve" smooth="yes"/>
			<point x="294" y="756" type="line"/>
			<point x="294" y="631" type="line"/>
			<point x="484" y="631" type="line" smooth="yes"/>
			<point x="559" y="631"/>
			<point x="573" y="592"/>
			<point x="573" y="541" type="curve" smooth="yes"/>
			<point x="573" y="443"/>
			<point x="540" y="422"/>
			<point x="460" y="422" type="curve" smooth="yes"/>
			<point x="232" y="422" type="line"/>
			<point x="232" y="301" type="line"/>
			<point x="438" y="301" type="line"/>
			<point x="603" y="0" type="line"/>
			<point x="758" y="-1" type="line"/>
		</contour>
	</outline>
</glyph>
<glyph name="S" format="2">
	<advance width="714"/>
	<unicode hex="0053"/>
	<guideline x="-850" y="0" angle="0"/>
	<guideline x="-923" y="0" angle="0"/>
	<guideline x="-944" y="0" angle="0"/>
	<outline>
		<contour>
			<point x="208" y="579" type="curve"/>
			<point x="68" y="579" type="line"/>
			<point x="68" y="533" type="line" smooth="yes"/>
			<point x="68" y="404"/>
			<point x="144" y="366"/>
			<point x="206" y="355" type="curve" smooth="yes"/>
			<point x="418" y="317" type="line" smooth="yes"/>
			<point x="490" y="304"/>
			<point x="502" y="288"/>
			<point x="502" y="216" type="curve" smooth="yes"/>
			<point x="502" y="142"/>
			<point x="486" y="127"/>
			<point x="414" y="127" type="curve" smooth="yes"/>
			<point x="76" y="127" type="line"/>
			<point x="76" y="0" type="line"/>
			<point x="443" y="0" type="line" smooth="yes"/>
			<point x="564" y="0"/>
			<point x="641" y="72"/>
			<point x="641" y="213" type="curve" smooth="yes"/>
			<point x="641" y="260" type="line" smooth="yes"/>
			<point x="641" y="386"/>
			<point x="564" y="424"/>
			<point x="501" y="435" type="curve" smooth="yes"/>
			<point x="286" y="473" type="line" smooth="yes"/>
			<point x="216" y="485"/>
			<point x="207" y="505"/>
			<point x="207" y="560" type="curve" smooth="yes"/>
			<point x="207" y="567"/>
			<point x="207" y="573"/>
		</contour>
		<contour>
			<point x="74" y="629" type="curve"/>
			<point x="283" y="629" type="line"/>
			<point x="599" y="629" type="line"/>
			<point x="599" y="756" type="line"/>
			<point x="249" y="756" type="line" smooth="yes"/>
			<point x="161" y="756"/>
			<point x="94" y="703"/>
		</contour>
	</outline>
</glyph>
<glyph name="W" format="2">
	<advance width="1025"/>
	<unicode hex="0057"/>
	<guideline x="26" y="546" angle="0"/>
	<guideline x="26" y="144" angle="0"/>
	<guideline x="974" y="595" angle="90"/>
	<guideline x="49" y="733" angle="90"/>
	<outline>
		<contour>
			<point x="384" y="549" type="line"/>
			<point x="293" y="126" type="line"/>
			<point x="272" y="126" type="line"/>
			<point x="175" y="756" type="line"/>
			<point x="46" y="756" type="line"/>
			<point x="160" y="0" type="line"/>
			<point x="378" y="0" type="line"/>
			<point x="494" y="549" type="line"/>
		</contour>
		<contour>
			<point x="883" y="126" type="line"/>
			<point x="747" y="126" type="line"/>
			<point x="614" y="733" type="line"/>
			<point x="423" y="733" type="line"/>
			<point x="394" y="599" type="line"/>
			<point x="513" y="599" type="line"/>
			<point x="645" y="0" type="line"/>
			<point x="863" y="0" type="line"/>
		</contour>
		<contour>
			<point x="890" y="176" type="line"/>
			<point x="979" y="757" type="line"/>
			<point x="862" y="757" type="line"/>
			<point x="773" y="176" type="line"/>
		</contour>
	</outline>
</glyph>
<glyph name="backslash" format="2">
	<advance width="476"/>
	<unicode hex="005C"/>
	<outline>
		<contour>
			<point x="203" y="756" type="line"/>
			<point x="77" y="756" type="line"/>
			<point x="309" y="-148" type="line"/>
			<point x="435" y="-148" type="line"/>
		</contour>
	</outline>
</glyph>
<glyph name="bracketright" format="2">
	<advance width="395"/>
	<unicode hex="005D"/>
	<guideline x="289" y="97" angle="90"/>
	<outline>
		<contour>
			<point x="163" y="775" type="line"/>
			<point x="163" y="-147" type="line"/>
			<point x="289" y="-147" type="line"/>
			<point x="289" y="775" type="line"/>
		</contour>
		<contour>
			<point x="289" y="775" type="line"/>
			<point x="83" y="775" type="line"/>
			<point x="83" y="662" type="line"/>
			<point x="289" y="662" type="line"/>
		</contour>
		<contour>
			<point x="289" y="-34" type="line"/>
			<point x="83" y="-34" type="line"/>
			<point x="83" y="-147" type="line"/>
			<point x="289" y="-147" type="line"/>
		</contour>
	</outline>
</glyph>
<glyph name="a" format="2">
	<advance width="644"/>
	<unicode hex="0061"/>
	<anchor x="580" y="10" name="ogonek"/>
	<anchor x="322" y="0" name="bottom"/>
	<anchor x="342" y="556" name="top"/>
	<outline>
		<contour>
			<point x="439" y="381" type="curve" smooth="yes"/>
			<point x="439" y="284" type="line"/>
			<point x="562" y="284" type="line"/>
			<point x="562" y="396" type="line" smooth="yes"/>
			<point x="562" y="500"/>
			<point x="506" y="563"/>
			<point x="402" y="563" type="curve" smooth="yes"/>
			<point x="104" y="563" type="line"/>
			<point x="104" y="443" type="line"/>
			<point x="379" y="443" type="line" smooth="yes"/>
			<point x="418" y="443"/>
			<point x="439" y="422"/>
		</contour>
		<contour>
			<point x="439" y="0" type="line"/>
			<point x="562" y="0" type="line"/>
			<point x="562" y="284" type="line"/>
			<point x="439" y="284" type="line"/>
		</contour>
		<contour>
			<point x="193" y="166" type="curve" smooth="yes"/>
			<point x="193" y="176" type="line"/>
			<point x="193" y="208"/>
			<point x="204" y="229"/>
			<point x="253" y="229" type="curve" smooth="yes"/>
			<point x="465" y="229" type="line"/>
			<point x="465" y="336" type="line"/>
			<point x="200" y="336" type="line" smooth="yes"/>
			<point x="116" y="336"/>
			<point x="70" y="290"/>
			<point x="70" y="206" type="curve" smooth="yes"/>
			<point x="70" y="126" type="line" smooth="yes"/>
			<point x="70" y="42"/>
			<point x="116" y="-4"/>
			<point x="202" y="-4" type="curve" smooth="yes"/>
			<point x="257" y="-4" type="line" smooth="yes"/>
			<point x="346" y="-4"/>
			<point x="402" y="44"/>
			<point x="402" y="113" type="curve"/>
			<point x="253" y="113" type="line" smooth="yes"/>
			<point x="204" y="113"/>
			<point x="193" y="134"/>
		</contour>
	</outline>
</glyph>
<glyph name="b" format="2">
	<advance width="681"/>
	<unicode hex="0062"/>
	<guideline x="-473" y="0" angle="0"/>
	<outline>
		<contour>
			<point x="97" y="778" type="line"/>
			<point x="97" y="1" type="line"/>
			<point x="220" y="1" type="line"/>
			<point x="220" y="778" type="line"/>
		</contour>
		<contour>
			<point x="260" y="440" type="curve"/>
			<point x="390" y="440" type="line"/>
			<point x="399" y="440" type="line" smooth="yes"/>
			<point x="464" y="440"/>
			<point x="480" y="416"/>
			<point x="480" y="357" type="curve" smooth="yes"/>
			<point x="480" y="196" type="line" smooth="yes"/>
			<point x="480" y="137"/>
			<point x="460" y="120"/>
			<point x="398" y="120" type="curve" smooth="yes"/>
			<point x="176" y="120" type="line"/>
			<point x="176" y="1" type="line"/>
			<point x="412" y="0" type="line" smooth="yes"/>
			<point x="570" y="-1"/>
			<point x="606" y="79"/>
			<point x="606" y="245" type="curve" smooth="yes"/>
			<point x="606" y="371" type="line" smooth="yes"/>
			<point x="606" y="516"/>
			<point x="556" y="560"/>
			<point x="446" y="560" type="curve" smooth="yes"/>
			<point x="370" y="560" type="line"/>
			<point x="319" y="560"/>
			<point x="260" y="505"/>
		</contour>
	</outline>
</glyph>
<glyph name="h" format="2">
	<advance width="674"/>
	<unicode hex="0068"/>
	<anchor x="396" y="556" name="top"/>
	<anchor x="373" y="0" name="bottom"/>
	<anchor x="384" y="560" name="top_"/>
	<outline>
		<contour>
			<point x="255" y="439" type="curve"/>
			<point x="367" y="439" type="line"/>
			<point x="437" y="439"/>
			<point x="471" y="405"/>
			<point x="471" y="326" type="curve" smooth="yes"/>
			<point x="471" y="0" type="line"/>
			<point x="594" y="0" type="line"/>
			<point x="594" y="380" type="line" smooth="yes"/>
			<point x="594" y="498"/>
			<point x="536" y="559"/>
			<point x="415" y="559" type="curve" smooth="yes"/>
			<point x="401" y="559" type="line"/>
			<point x="311" y="559"/>
			<point x="255" y="508"/>
		</contour>
		<contour>
			<point x="215" y="0" type="line"/>
			<point x="215" y="756" type="line"/>
			<point x="91" y="756" type="line"/>
			<point x="91" y="0" type="line"/>
		</contour>
	</outline>
</glyph>
<glyph name="l" format="2">
	<advance width="318"/>
	<unicode hex="006C"/>
	<outline>
		<contour>
			<point x="97" y="778" type="line"/>
			<point x="97" y="0" type="line"/>
			<point x="221" y="0" type="line"/>
			<point x="221" y="778" type="line"/>
		</contour>
	</outline>
</glyph>
<glyph name="o" format="2">
	<advance width="707"/>
	<unicode hex="006F"/>
	<anchor x="341" y="278" name="center"/>
	<anchor x="590" y="-1" name="ogonek"/>
	<anchor x="354" y="566" name="top"/>
	<anchor x="616" y="556" name="topright"/>
	<anchor x="337" y="-13" name="bottom"/>
	<outline>
		<contour>
			<point x="410" y="110" type="line"/>
			<point x="469" y="110"/>
			<point x="511" y="141"/>
			<point x="511" y="223" type="curve" smooth="yes"/>
			<point x="511" y="331" type="line" smooth="yes"/>
			<point x="511" y="413"/>
			<point x="472" y="444"/>
			<point x="385" y="444" type="curve" smooth="yes"/>
			<point x="333" y="444" type="line" smooth="yes"/>
			<point x="238" y="444"/>
			<point x="197" y="413"/>
			<point x="197" y="331" type="curve" smooth="yes"/>
			<point x="197" y="225" type="line"/>
			<point x="197" y="3" type="line"/>
			<point x="115" y="37"/>
			<point x="68" y="117"/>
			<point x="68" y="230" type="curve" smooth="yes"/>
			<point x="68" y="326" type="line" smooth="yes"/>
			<point x="68" y="474"/>
			<point x="149" y="566"/>
			<point x="284" y="566" type="curve"/>
			<point x="423" y="566" type="line" smooth="yes"/>
			<point x="558" y="566"/>
			<point x="639" y="474"/>
			<point x="639" y="326" type="curve" smooth="yes"/>
			<point x="639" y="230" type="line" smooth="yes"/>
			<point x="639" y="82"/>
			<point x="558" y="-10"/>
			<point x="423" y="-9" type="curve"/>
			<point x="278" y="-9" type="line"/>
			<point x="278" y="110" type="line"/>
		</contour>
	</outline>
</glyph>
<glyph name="p" format="2">
	<advance width="675"/>
	<unicode hex="0070"/>
	<guideline x="83" y="0" angle="0"/>
	<outline>
		<contour>
			<point x="90" y="556" type="line"/>
			<point x="90" y="-211" type="line"/>
			<point x="213" y="-211" type="line"/>
			<point x="213" y="117" type="line"/>
			<point x="213" y="556" type="line"/>
		</contour>
		<contour>
			<point x="253" y="439" type="curve"/>
			<point x="253" y="439"/>
			<point x="380" y="439"/>
			<point x="380" y="439" type="curve"/>
			<point x="450" y="439"/>
			<point x="477" y="410"/>
			<point x="477" y="348" type="curve" smooth="yes"/>
			<point x="477" y="210" type="line" smooth="yes"/>
			<point x="477" y="148"/>
			<point x="450" y="120"/>
			<point x="381" y="120" type="curve" smooth="yes"/>
			<point x="178" y="120" type="line"/>
			<point x="178" y="0" type="line"/>
			<point x="380" y="0" type="line" smooth="yes"/>
			<point x="516" y="0"/>
			<point x="600" y="90"/>
			<point x="600" y="238" type="curve" smooth="yes"/>
			<point x="600" y="380" type="line" smooth="yes"/>
			<point x="600" y="498"/>
			<point x="542" y="559"/>
			<point x="415" y="559" type="curve" smooth="yes"/>
			<point x="399" y="559" type="line" smooth="yes"/>
			<point x="310" y="559"/>
			<point x="256" y="511"/>
		</contour>
	</outline>
</glyph>
<glyph name="r" format="2">
	<advance width="471"/>
	<unicode hex="0072"/>
	<outline>
		<contour>
			<point x="91" y="556" type="line"/>
			<point x="91" y="0" type="line"/>
			<point x="214" y="0" type="line"/>
			<point x="214" y="556" type="line"/>
		</contour>
		<contour>
			<point x="252" y="435" type="curve"/>
			<point x="436" y="435" type="line"/>
			<point x="436" y="563" type="line"/>
			<point x="381" y="563" type="line" smooth="yes"/>
			<point x="302" y="563"/>
			<point x="252" y="516"/>
		</contour>
	</outline>
</glyph>
<glyph name="s" format="2">
	<advance width="587"/>
	<unicode hex="0073"/>
	<outline>
		<contour>
			<point x="169" y="385" type="curve"/>
			<point x="59" y="385" type="line"/>
			<point x="61" y="279"/>
			<point x="117" y="257"/>
			<point x="189" y="244" type="curve" smooth="yes"/>
			<point x="352" y="216" type="line" smooth="yes"/>
			<point x="409" y="206"/>
			<point x="418" y="195"/>
			<point x="418" y="163" type="curve" smooth="yes"/>
			<point x="418" y="131"/>
			<point x="406" y="120"/>
			<point x="349" y="120" type="curve" smooth="yes"/>
			<point x="80" y="120" type="line"/>
			<point x="80" y="0" type="line"/>
			<point x="364" y="0" type="line" smooth="yes"/>
			<point x="470" y="0"/>
			<point x="526" y="53"/>
			<point x="526" y="157" type="curve" smooth="yes"/>
			<point x="526" y="194" type="line" smooth="yes"/>
			<point x="526" y="288"/>
			<point x="470" y="314"/>
			<point x="404" y="324" type="curve" smooth="yes"/>
			<point x="226" y="352" type="line" smooth="yes"/>
			<point x="186" y="358"/>
			<point x="173" y="369"/>
		</contour>
		<contour>
			<point x="59" y="436" type="curve"/>
			<point x="492" y="436" type="line"/>
			<point x="492" y="556" type="line"/>
			<point x="219" y="556" type="line" smooth="yes"/>
			<point x="118" y="556"/>
			<point x="62" y="503"/>
		</contour>
	</outline>
</glyph>
<glyph name="t" format="2">
	<advance width="463"/>
	<unicode hex="0074"/>
	<outline>
		<contour>
			<point x="40" y="556" type="line"/>
			<point x="40" y="436" type="line"/>
			<point x="417" y="436" type="line"/>
			<point x="417" y="556" type="line"/>
		</contour>
		<contour>
			<point x="132" y="387" type="line"/>
			<point x="132" y="136" type="line" smooth="yes"/>
			<point x="132" y="42"/>
			<point x="178" y="-4"/>
			<point x="271" y="-4" type="curve" smooth="yes"/>
			<point x="406" y="-4" type="line"/>
			<point x="406" y="116" type="line"/>
			<point x="316" y="116" type="line" smooth="yes"/>
			<point x="276" y="116"/>
			<point x="255" y="137"/>
			<point x="255" y="181" type="curve" smooth="yes"/>
			<point x="255" y="387" type="line"/>
		</contour>
		<contour>
			<point x="255" y="455" type="line"/>
			<point x="255" y="674" type="line"/>
			<point x="132" y="674" type="line"/>
			<point x="132" y="455" type="line"/>
		</contour>
	</outline>
</glyph>
<glyph name="u" format="2">
	<advance width="659"/>
	<unicode hex="0075"/>
	<anchor x="593" y="10" name="ogonek"/>
	<anchor x="325" y="556" name="top"/>
	<anchor x="639" y="556" name="topright"/>
	<anchor x="330" y="0" name="bottom"/>
	<outline>
		<contour>
			<point x="569" y="0" type="line"/>
			<point x="569" y="559" type="line"/>
			<point x="446" y="559" type="line"/>
			<point x="446" y="0" type="line"/>
		</contour>
		<contour>
			<point x="406" y="117" type="curve"/>
			<point x="306" y="117" type="line"/>
			<point x="236" y="117"/>
			<point x="202" y="151"/>
			<point x="202" y="230" type="curve" smooth="yes"/>
			<point x="202" y="556" type="line"/>
			<point x="79" y="556" type="line"/>
			<point x="79" y="176" type="line" smooth="yes"/>
			<point x="79" y="58"/>
			<point x="137" y="-3"/>
			<point x="258" y="-3" type="curve" smooth="yes"/>
			<point x="260" y="-3" type="line" smooth="yes"/>
			<point x="350" y="-3"/>
			<point x="406" y="48"/>
		</contour>
	</outline>
</glyph>
<glyph name="w" format="2">
	<advance width="920"/>
	<unicode hex="0077"/>
	<outline>
		<contour>
			<point x="36" y="556" type="line"/>
			<point x="176" y="0" type="line"/>
			<point x="360" y="0" type="line"/>
			<point x="440" y="382" type="line"/>
			<point x="336" y="382" type="line"/>
			<point x="279" y="124" type="line"/>
			<point x="259" y="124" type="line"/>
			<point x="159" y="556" type="line"/>
		</contour>
		<contour>
			<point x="773" y="124" type="line"/>
			<point x="644" y="124" type="line"/>
			<point x="547" y="556" type="line"/>
			<point x="374" y="556" type="line"/>
			<point x="347" y="432" type="line"/>
			<point x="471" y="432" type="line"/>
			<point x="561" y="0" type="line"/>
			<point x="740" y="0" type="line"/>
		</contour>
		<contour>
			<point x="785" y="174" type="line"/>
			<point x="884" y="556" type="line"/>
			<point x="763" y="556" type="line"/>
			<point x="677" y="174" type="line"/>
		</contour>
	</outline>
</glyph>
<glyph name="x" format="2">
	<advance width="569"/>
	<unicode hex="0078"/>
	<outline>
		<contour>
			<point x="319" y="177" type="line"/>
			<point x="417" y="0" type="line"/>
			<point x="558" y="0" type="line"/>
			<point x="452" y="177" type="line"/>
		</contour>
		<contour>
			<point x="245" y="390" type="line"/>
			<point x="154" y="556" type="line"/>
			<point x="16" y="556" type="line"/>
			<point x="114" y="390" type="line"/>
		</contour>
		<contour>
			<point x="11" y="0" type="line"/>
			<point x="155" y="0" type="line"/>
			<point x="273" y="227" type="line"/>
			<point x="422" y="227" type="line"/>
			<point x="387" y="285" type="line"/>
			<point x="546" y="556" type="line"/>
			<point x="420" y="556" type="line"/>
			<point x="290" y="340" type="line"/>
			<point x="144" y="340" type="line"/>
			<point x="175" y="285" type="line"/>
		</contour>
	</outline>
</glyph>
<glyph name="y" format="2">
	<advance width="632"/>
	<unicode hex="0079"/>
	<outline>
		<contour>
			<point x="404" y="-50" type="curve"/>
			<point x="288" y="-50" type="line"/>
			<point x="275" y="-83"/>
			<point x="252" y="-97"/>
			<point x="216" y="-97" type="curve" smooth="yes"/>
			<point x="111" y="-97" type="line"/>
			<point x="111" y="-210" type="line"/>
			<point x="216" y="-210" type="line" smooth="yes"/>
			<point x="314" y="-210"/>
			<point x="364" y="-171"/>
		</contour>
		<contour>
			<point x="228" y="0" type="line"/>
			<point x="420" y="0" type="line"/>
			<point x="596" y="556" type="line"/>
			<point x="463" y="556" type="line"/>
			<point x="341" y="134" type="line"/>
			<point x="306" y="134" type="line"/>
			<point x="167" y="556" type="line"/>
			<point x="36" y="556" type="line"/>
		</contour>
	</outline>
</glyph>
<glyph name="z" format="2">
	<advance width="514"/>
	<unicode hex="007A"/>
	<outline>
		<contour>
			<point x="296" y="401" type="line"/>
			<point x="31" y="119" type="line"/>
			<point x="31" y="0" type="line"/>
			<point x="485" y="0" type="line"/>
			<point x="485" y="105" type="line"/>
			<point x="178" y="105" type="line"/>
			<point x="178" y="116" type="line"/>
			<point x="443" y="401" type="line"/>
		</contour>
		<contour>
			<point x="33" y="451" type="line"/>
			<point x="477" y="451" type="line"/>
			<point x="477" y="556" type="line"/>
			<point x="33" y="556" type="line"/>
		</contour>
	</outline>
</glyph>
<glyph name="quotedblbase" format="2">
	<advance width="504"/>
	<unicode hex="201E"/>
	<outline>
		<contour>
			<point x="254" y="-114" type="line"/>
			<point x="369" y="-114" type="line"/>
			<point x="454" y="129" type="line"/>
			<point x="320" y="129" type="line"/>
		</contour>
		<contour>
			<point x="40" y="-114" type="line"/>
			<point x="155" y="-114" type="line"/>
			<point x="226" y="129" type="line"/>
			<point x="88" y="129" type="line"/>
		</contour>
	</outline>
</glyph>
<glyph name="guilsinglright" format="2">
	<advance width="303"/>
	<unicode hex="203A"/>
	<outline>
		<contour>
			<point x="253" y="183" type="line"/>
			<point x="253" y="355" type="line"/>
			<point x="50" y="475" type="line"/>
			<point x="50" y="335" type="line"/>
			<point x="160" y="279" type="line"/>
			<point x="160" y="259" type="line"/>
			<point x="50" y="203" type="line"/>
			<point x="50" y="63" type="line"/>
		</contour>
	</outline>
</glyph>
<glyph name="arrowdown" format="2">
	<advance width="856"/>
	<unicode hex="2193"/>
	<outline>
		<contour>
			<point x="30" y="355" type="line"/>
			<point x="363" y="0" type="line"/>
			<point x="493" y="0" type="line"/>
			<point x="826" y="355" type="line"/>
			<point x="741" y="439" type="line"/>
			<point x="428" y="76" type="line"/>
			<point x="533" y="166" type="line"/>
			<point x="458" y="166" type="line"/>
			<point x="493" y="42" type="line"/>
			<point x="493" y="756" type="line"/>
			<point x="363" y="756" type="line"/>
			<point x="363" y="42" type="line"/>
			<point x="392" y="166" type="line"/>
			<point x="329" y="166" type="line"/>
			<point x="428" y="76" type="line"/>
			<point x="115" y="439" type="line"/>
		</contour>
	</outline>
</glyph>
<glyph name="Advertencia" format="2">
	<advance width="832"/>
	<outline>
		<contour>
			<point x="371" y="137" type="line"/>
			<point x="463" y="137" type="line"/>
			<point x="463" y="228" type="line"/>
			<point x="371" y="228" type="line"/>
		</contour>
		<contour>
			<point x="371" y="257" type="line"/>
			<point x="463" y="257" type="line"/>
			<point x="463" y="491" type="line"/>
			<point x="371" y="491" type="line"/>
		</contour>
		<contour>
			<point x="163" y="154" type="line"/>
			<point x="416" y="634" type="line"/>
			<point x="697" y="104" type="line"/>
			<point x="9" y="104" type="line"/>
			<point x="9" y="0" type="line"/>
			<point x="823" y="0" type="line"/>
			<point x="823" y="104" type="line"/>
			<point x="469" y="761" type="line"/>
			<point x="358" y="761" type="line"/>
			<point x="37" y="154" type="line"/>
		</contour>
	</outline>
</glyph>
<glyph name="Banca" format="2">
	<advance width="1038"/>
	<outline>
		<contour>
			<point x="59" y="360" type="line"/>
			<point x="59" y="240" type="line"/>
			<point x="979" y="240" type="line"/>
			<point x="979" y="360" type="line"/>
		</contour>
		<contour>
			<point x="163" y="537" type="line"/>
			<point x="163" y="417" type="line"/>
			<point x="853" y="417" type="line"/>
			<point x="853" y="537" type="line"/>
		</contour>
		<contour>
			<point x="163" y="714" type="line"/>
			<point x="163" y="594" type="line"/>
			<point x="853" y="594" type="line"/>
			<point x="853" y="714" type="line"/>
		</contour>
		<contour>
			<point x="229" y="240" type="line"/>
			<point x="109" y="240" type="line"/>
			<point x="109" y="0" type="line"/>
			<point x="229" y="0" type="line"/>
		</contour>
		<contour>
			<point x="929" y="240" type="line"/>
			<point x="809" y="240" type="line"/>
			<point x="809" y="0" type="line"/>
			<point x="929" y="0" type="line"/>
		</contour>
		<contour>
			<point x="333" y="756" type="line"/>
			<point x="213" y="756" type="line"/>
			<point x="213" y="636" type="line"/>
			<point x="333" y="636" type="line"/>
		</contour>
		<contour>
			<point x="803" y="753" type="line"/>
			<point x="683" y="753" type="line"/>
			<point x="683" y="633" type="line"/>
			<point x="803" y="633" type="line"/>
		</contour>
	</outline>
</glyph>
<glyph name="Basura" format="2">
	<advance width="687"/>
	<outline>
		<contour>
			<point x="74" y="434" type="line"/>
			<point x="74" y="85" type="line" smooth="yes"/>
			<point x="74" y="30"/>
			<point x="104" y="0"/>
			<point x="159" y="0" type="curve" smooth="yes"/>
			<point x="528" y="0" type="line" smooth="yes"/>
			<point x="583" y="0"/>
			<point x="613" y="30"/>
			<point x="613" y="85" type="curve" smooth="yes"/>
			<point x="613" y="434" type="line"/>
			<point x="510" y="434" type="line"/>
			<point x="510" y="100" type="line"/>
			<point x="177" y="100" type="line"/>
			<point x="177" y="434" type="line"/>
		</contour>
		<contour>
			<point x="667" y="584" type="line"/>
			<point x="20" y="584" type="line"/>
			<point x="20" y="484" type="line"/>
			<point x="667" y="484" type="line"/>
		</contour>
		<contour>
			<point x="583" y="634" type="line"/>
			<point x="583" y="645" type="line" smooth="yes"/>
			<point x="583" y="700"/>
			<point x="553" y="730"/>
			<point x="498" y="730" type="curve" smooth="yes"/>
			<point x="189" y="730" type="line" smooth="yes"/>
			<point x="134" y="730"/>
			<point x="104" y="700"/>
			<point x="104" y="645" type="curve" smooth="yes"/>
			<point x="104" y="524" type="line"/>
			<point x="207" y="524" type="line"/>
			<point x="207" y="634" type="line"/>
		</contour>
		<contour>
			<point x="258" y="434" type="line"/>
			<point x="258" y="153" type="line"/>
			<point x="315" y="153" type="line"/>
			<point x="315" y="434" type="line"/>
		</contour>
		<contour>
			<point x="372" y="434" type="line"/>
			<point x="372" y="153" type="line"/>
			<point x="429" y="153" type="line"/>
			<point x="429" y="434" type="line"/>
		</contour>
	</outline>
</glyph>
<glyph name="Jardin" format="2">
	<advance width="1027"/>
	<outline>
		<contour>
			<point x="780" y="655" type="line"/>
			<point x="785" y="655" type="line" smooth="yes"/>
			<point x="861" y="655"/>
			<point x="883" y="643"/>
			<point x="883" y="574" type="curve" smooth="yes"/>
			<point x="883" y="464" type="line" smooth="yes"/>
			<point x="883" y="395"/>
			<point x="861" y="383"/>
			<point x="785" y="383" type="curve" smooth="yes"/>
			<point x="725" y="383" type="line" smooth="yes"/>
			<point x="649" y="383"/>
			<point x="627" y="395"/>
			<point x="627" y="464" type="curve" smooth="yes"/>
			<point x="627" y="574" type="line" smooth="yes"/>
			<point x="627" y="643"/>
			<point x="649" y="655"/>
			<point x="725" y="655" type="curve" smooth="yes"/>
			<point x="730" y="655" type="line"/>
			<point x="730" y="762" type="line"/>
			<point x="687" y="762" type="line" smooth="yes"/>
			<point x="578" y="762"/>
			<point x="513" y="689"/>
			<point x="513" y="582" type="curve" smooth="yes"/>
			<point x="513" y="456" type="line" smooth="yes"/>
			<point x="513" y="329"/>
			<point x="548" y="276"/>
			<point x="687" y="276" type="curve" smooth="yes"/>
			<point x="697" y="276" type="line"/>
			<point x="697" y="120" type="line"/>
			<point x="317" y="120" type="line"/>
			<point x="317" y="276" type="line"/>
			<point x="414" y="276" type="line" smooth="yes"/>
			<point x="474" y="276"/>
			<point x="507" y="313"/>
			<point x="488" y="370" type="curve" smooth="yes"/>
			<point x="362" y="756" type="line"/>
			<point x="279" y="756" type="line"/>
			<point x="279" y="646" type="line"/>
			<point x="351" y="383" type="line"/>
			<point x="163" y="383" type="line"/>
			<point x="232" y="646" type="line"/>
			<point x="232" y="756" type="line"/>
			<point x="157" y="756" type="line"/>
			<point x="35" y="370" type="line" smooth="yes"/>
			<point x="17" y="312"/>
			<point x="50" y="276"/>
			<point x="110" y="276" type="curve" smooth="yes"/>
			<point x="201" y="276" type="line"/>
			<point x="201" y="120" type="line"/>
			<point x="35" y="120" type="line"/>
			<point x="35" y="-1" type="line"/>
			<point x="997" y="-1" type="line"/>
			<point x="997" y="120" type="line"/>
			<point x="813" y="120" type="line"/>
			<point x="813" y="276" type="line"/>
			<point x="823" y="276" type="line" smooth="yes"/>
			<point x="942" y="276"/>
			<point x="997" y="339"/>
			<point x="997" y="456" type="curve" smooth="yes"/>
			<point x="997" y="581" type="line" smooth="yes"/>
			<point x="997" y="710"/>
			<point x="960" y="762"/>
			<point x="824" y="762" type="curve" smooth="yes"/>
			<point x="780" y="762" type="line"/>
		</contour>
	</outline>
</glyph>
<glyph name="Mascota" format="2">
	<advance width="1124"/>
	<outline>
		<contour>
			<point x="167" y="0" type="line"/>
			<point x="311" y="0" type="line"/>
			<point x="311" y="194" type="line"/>
			<point x="284" y="99" type="line"/>
			<point x="400" y="281" type="line"/>
			<point x="203" y="252" type="line"/>
			<point x="167" y="152" type="line"/>
		</contour>
		<contour>
			<point x="408" y="0" type="line"/>
			<point x="539" y="0" type="line"/>
			<point x="423" y="231" type="line"/>
			<point x="342" y="143" type="line"/>
		</contour>
		<contour>
			<point x="630" y="0" type="line"/>
			<point x="768" y="0" type="line"/>
			<point x="768" y="416" type="line"/>
			<point x="683" y="541" type="line"/>
			<point x="203" y="541" type="line"/>
			<point x="203" y="252" type="line"/>
			<point x="682" y="252" type="line"/>
			<point x="630" y="304" type="line"/>
		</contour>
		<contour>
			<point x="726" y="570" type="line"/>
			<point x="817" y="444" type="line"/>
			<point x="905" y="504" type="line"/>
			<point x="825" y="510" type="line"/>
			<point x="986" y="363" type="line"/>
			<point x="1071" y="455" type="line"/>
			<point x="919" y="674" type="line"/>
			<point x="909" y="600" type="line"/>
			<point x="1011" y="682" type="line"/>
			<point x="950" y="756" type="line"/>
		</contour>
		<contour>
			<point x="286" y="520" type="move"/>
		</contour>
		<contour>
			<point x="65" y="590" type="line"/>
			<point x="251" y="405" type="line"/>
			<point x="320" y="475" type="line"/>
			<point x="134" y="661" type="line"/>
		</contour>
	</outline>
</glyph>
